<svg id="visual" viewBox="0 0 675 900" width="675" height="900" xmlns="http://www.w3.org/2000/svg" xmlns:xlink="http://www.w3.org/1999/xlink" version="1.1"><rect x="0" y="0" width="675" height="900" fill="#2C3930"></rect><path d="M0 603L22.5 604.3C45 605.7 90 608.3 135 608.5C180 608.7 225 606.3 270 598.8C315 591.3 360 578.7 405 570.8C450 563 495 560 540 559C585 558 630 559 652.5 559.5L675 560L675 901L652.5 901C630 901 585 901 540 901C495 901 450 901 405 901C360 901 315 901 270 901C225 901 180 901 135 901C90 901 45 901 22.5 901L0 901Z" fill="#3F4F44"></path></svg>