<svg id="visual" viewBox="0 0 960 540" width="960" height="540" xmlns="http://www.w3.org/2000/svg" xmlns:xlink="http://www.w3.org/1999/xlink" version="1.1"><rect x="0" y="0" width="960" height="540" fill="#fef9e1"></rect><defs><linearGradient id="grad1_0" x1="43.8%" y1="0%" x2="100%" y2="100%"><stop offset="14.444444444444446%" stop-color="#fef9e1" stop-opacity="1"></stop><stop offset="85.55555555555554%" stop-color="#fef9e1" stop-opacity="1"></stop></linearGradient></defs><defs><linearGradient id="grad2_0" x1="0%" y1="0%" x2="56.3%" y2="100%"><stop offset="14.444444444444446%" stop-color="#fef9e1" stop-opacity="1"></stop><stop offset="85.55555555555554%" stop-color="#fef9e1" stop-opacity="1"></stop></linearGradient></defs><g transform="translate(960, 0)"><path d="M0 486C-49.1 468.5 -98.1 451.1 -139.4 428.9C-180.6 406.8 -214 380 -261 359.2C-307.9 338.4 -368.4 323.6 -393.2 285.7C-418 247.8 -407 186.8 -416.6 135.3C-426.1 83.9 -456 41.9 -486 0L0 0Z" fill="#bec6a0"></path></g><g transform="translate(0, 540)"><path d="M0 -486C49.6 -478.7 99.2 -471.4 148.9 -458.4C198.6 -445.4 248.4 -426.7 285.7 -393.2C322.9 -359.7 347.6 -311.3 366.5 -266.3C385.4 -221.2 398.6 -179.5 417.5 -135.7C436.5 -91.8 461.2 -45.9 486 0L0 0Z" fill="#bec6a0"></path></g></svg>