<svg id="visual" viewBox="0 0 675 900" width="675" height="900" xmlns="http://www.w3.org/2000/svg" xmlns:xlink="http://www.w3.org/1999/xlink" version="1.1"><rect x="0" y="0" width="675" height="900" fill="#232020"></rect><path d="M0 631L28.2 626.7C56.3 622.3 112.7 613.7 169 614.2C225.3 614.7 281.7 624.3 337.8 628.7C394 633 450 632 506.2 633C562.3 634 618.7 637 646.8 638.5L675 640L675 901L646.8 901C618.7 901 562.3 901 506.2 901C450 901 394 901 337.8 901C281.7 901 225.3 901 169 901C112.7 901 56.3 901 28.2 901L0 901Z" fill="#DCD7C9" stroke-linecap="round" stroke-linejoin="miter"></path></svg>